# xmcd CD database file
#
# Track frame offsets:
#	150
#	22452
#	36802
#	50636
#	63449
#	75276
#	109668
#	121234
#	135231
#	157995
#	174520
#	191400
#	203827
#
# Disc length: 2983 seconds
#
# Revision: 0
# Processed by: cddbd v1.4PL0 Copyright (c) Steve Scherf et al.
# Submitted via: ACXtractor (MTCDDB.DLL V2003.07.15)
#
DISCID=a60ba50d
DTITLE=Snoop Dogg - Welcome 2 Tha Church Vol 3
DYEAR=2003
DGENRE=Hip-Hop
TTITLE0=KICKIN' IT ROUGH(snoop dogg)
TTITLE1=ANGRY TONITE(snoop dogg)
TTITLE2=WHERE THE HOES AT(snoop dogg,daz,soopafly)
TTITLE3=STRAIGHT BALLIN'(snoop dogg)
TTITLE4=COME ON UP TO MY ROOM
TTITLE5=MOET(rbx,e-white,trip loc,snoop dogg)
TTITLE6=HOT DAT GIRLZ ON FIRE(soopafly)
TTITLE7=TAKE YOUR TIME(snoop dogg)
TTITLE8=IT BLOWS MY MIND(snoop dogg,pharrell)
TTITLE9=FLY RIDEZ BY(soopafly)
TTITLE10=FREAKY LIL'(snoop dogg)
TTITLE11=VOTE FOR SNOOP(snoop dogg, marvin gaye)
TTITLE12=WANNA HUMP YOU(snoop dogg)
EXTD=ID3G:   7 YEAR: 2003
EXTT0=
EXTT1=
EXTT2=
EXTT3=
EXTT4=
EXTT5=
EXTT6=
EXTT7=
EXTT8=
EXTT9=
EXTT10=
EXTT11=
EXTT12=
PLAYORDER=
